<?xml version="1.0" encoding="utf-8"?>
<svg version="1.1" xmlns:xlink="http://www.w3.org/1999/xlink" width="32px" height="32px" xmlns="http://www.w3.org/2000/svg">
  <g transform="matrix(1 0 0 1 -8 -8 )">
    <path d="M 14.7714543812105 15  L 14.7714543812105 14.7859078590786  C 12.126467931346 15.5519421860885  10.5076784101174 22.8654019873532  15.1906052393857 25  L 25.6404697380307 25  C 27.230352303523 24.6720867208672  27.1436314363144 21.6079494128275  25.6549232158988 21.7091237579042  L 19.353206865402 21.7091237579042  C 17.0406504065041 21.6368563685637  16.9683830171635 17.7922312556459  19.3242999096658 17.6187895212285  L 25.0912375790425 17.6187895212285  L 25.9584462511292 17.6332429990967  C 31.5085817524842 17.8211382113821  31.3206865401987 28.5889792231256  26.4787714543812 29.0948509485095  L 25.5103884372177 29  L 14.7280939476061 29  C 14.2222222222222 29.0803974706414  13.1671183378501 28.646793134598  12.5745257452575 28.1842818428184  C 6.35953026196929 23.3712737127371  8.03613369467029 14.6847335140018  12.516711833785 11.5916892502258  C 12.9647696476965 11.2881662149955  13.672990063234 10.6233062330623  14.8726287262873 11  L 31.9421860885276 11  L 31.9421860885276 5.69467028003613  C 31.9421860885276 2.55826558265583  29.3983739837398 0.0144534778681122  26.2619692863595 0  L 5.72357723577236 0  C 2.58717253839205 0.014453477868112  0.0433604336043348 2.55826558265583  0 5.69467028003613  L 0 26.3053297199639  C 0.0433604336043348 29.4417344173442  2.58717253839205 31.9855465221319  5.72357723577236 32  L 26.2764227642276 32  C 29.412827461608 31.9855465221319  31.9421860885275 29.4417344173442  32 26.3053297199639  L 32 15  L 14.7714543812105 15  Z M 9.2646793134598 6.76422764227642  L 9.2646793134598 4.07588075880759  C 9.2646793134598 3.62782294489612  9.58265582655826 3.26648599819332  9.9873532068654 3.26648599819332  L 29.2104787714544 3.26648599819332  C 29.6007226738934 3.26648599819332  29.93315266486 3.62782294489612  29.93315266486 4.07588075880759  L 29.93315266486 6.76422764227642  C 29.93315266486 7.2122854561879  29.6151761517615 7.58807588075881  29.2104787714544 8  L 9.9873532068654 8  C 9.59710930442638 7.58807588075881  9.2646793134598 7.22673893405601  9.2646793134598 6.76422764227642  Z M 7.8193315266486 14.7570009033424  L 3.0063233965673 14.7425474254743  C 0.86720867208672 14.4101174345077  1.05510388437218 10.8112014453478  3.0063233965673 10.5654923215899  L 10.9268292682927 10.5654923215899  C 9.52484191508582 11.4471544715447  8.45528455284553 12.7913279132791  7.8193315266486 14.7570009033424  Z " fill-rule="nonzero" fill="#2365ec" stroke="none" transform="matrix(1 0 0 1 8 8 )" />
  </g>
</svg>